<svg id="Layer_2" viewBox="0 0 64 64" xmlns="http://www.w3.org/2000/svg" data-name="Layer 2"><path d="m16.44 41.68h4.46c.17 0 .31-.14.31-.31 0-.79.19-1.46.57-1.97.36-.5.82-.74 1.4-.74s1.03.18 1.33.54c.31.37.47.94.47 1.69 0 .94-.74 2.26-2.2 3.92l-6.18 6.5c-.06.06-.09.14-.09.22v2.91c0 .17.14.31.31.31h13.42c.17 0 .31-.14.31-.31v-3.43c0-.17-.14-.31-.31-.31h-6.88l2.02-2.33c1.32-1.32 2.3-2.4 2.9-3.19.61-.81 1.06-1.59 1.36-2.33.29-.75.44-1.53.44-2.33 0-1.88-.6-3.35-1.79-4.37-1.17-1.01-2.86-1.51-5-1.51-1.34 0-2.57.3-3.66.88-1.09.59-1.96 1.42-2.58 2.46s-.93 2.2-.93 3.43c0 .17.14.31.31.31zm1.15-3.42c.56-.94 1.34-1.69 2.34-2.23s2.13-.81 3.37-.81c1.99 0 3.54.46 4.6 1.36 1.06.91 1.57 2.18 1.57 3.9 0 .72-.14 1.42-.4 2.1-.27.69-.7 1.42-1.27 2.19-.58.77-1.54 1.83-2.86 3.15l-2.48 2.87c-.08.09-.1.22-.05.33s.16.18.28.18h7.26v2.81h-12.79v-2.47l6.1-6.42c1.59-1.81 2.36-3.23 2.36-4.34 0-.9-.21-1.6-.61-2.09-.42-.5-1.03-.76-1.81-.76s-1.42.33-1.9.99c-.41.56-.64 1.24-.68 2.03h-3.84c.05-1 .33-1.94.83-2.8z"/><path d="m33.72 50.64h7.12v3.77c0 .17.14.31.31.31h4.45c.17 0 .31-.14.31-.31v-3.77h1.64c.17 0 .31-.14.31-.31v-3.43c0-.17-.14-.31-.31-.31h-1.64v-11.4c0-.17-.14-.31-.31-.31h-4.45c-.13 0-.24.1-.29.22l-7.68 12.35c-.04.06-.05.13-.05.2l.26 2.72c.02.16.15.28.31.28zm7.63-15.15h3.94v11.4c0 .17.14.31.31.31h1.64v2.81h-1.64c-.17 0-.31.14-.31.31v3.77h-3.83v-3.77c0-.17-.14-.31-.31-.31h-7.15l-.23-2.33z"/><path d="m37.69 47.21h3.46c.17 0 .31-.14.31-.31v-5.92c0-.14-.09-.26-.23-.3-.14-.03-.28.02-.35.14l-3.46 5.92c-.06.1-.06.22 0 .31.06.1.16.16.27.16zm3.15-5.1v4.48h-2.61z"/><path d="m24.57 13.49h-2.36c-.17 0-.31.14-.31.31v6.73c0 .37-.07.65-.21.84-.12.16-.28.24-.51.24-.26 0-.44-.06-.53-.18-.08-.1-.17-.32-.17-.79 0-.17-.14-.31-.31-.31h-2.37c-.17 0-.31.14-.31.31 0 1.08.33 1.92.99 2.52.65.59 1.56.89 2.7.89.69 0 1.32-.15 1.88-.44.57-.3 1.02-.72 1.34-1.26s.48-1.15.48-1.83v-6.73c0-.17-.14-.31-.31-.31zm-.31 7.05c0 .57-.13 1.07-.39 1.51s-.62.78-1.09 1.02-1.01.37-1.59.37c-.98 0-1.75-.24-2.28-.73-.47-.42-.72-1-.78-1.75h1.75c.03.37.13.65.28.86.22.28.56.43 1.03.43.43 0 .78-.17 1.01-.5.22-.3.33-.71.33-1.21v-6.42h1.74v6.42z"/><path d="m35.14 13.49h-2.37c-.17 0-.31.14-.31.31v6.41c0 .52-.1.89-.29 1.1s-.48.31-.88.31c-.8 0-1.16-.4-1.18-1.3v-6.52c0-.17-.14-.31-.31-.31h-2.38c-.17 0-.31.14-.31.31v6.48c.01 1.16.4 2.1 1.15 2.78.74.67 1.76 1.01 3.03 1.01.84 0 1.57-.15 2.19-.45.64-.31 1.13-.76 1.47-1.34s.51-1.27.51-2.05v-6.42c0-.17-.14-.31-.31-.31zm-.31 6.74c0 .67-.14 1.25-.42 1.73s-.67.84-1.2 1.09c-.53.26-1.18.39-1.92.39-1.11 0-1.99-.29-2.62-.85s-.94-1.32-.95-2.32v-6.16h1.76v6.21c.03 1.24.67 1.92 1.81 1.92.58 0 1.03-.17 1.34-.5s.46-.83.46-1.53v-6.1h1.74v6.11z"/><path d="m46.2 13.49h-2.36c-.17 0-.31.14-.31.31v4.93l-2.89-5.08c-.06-.1-.16-.16-.27-.16h-2.37c-.17 0-.31.14-.31.31v9.82c0 .17.14.31.31.31h2.37c.17 0 .31-.14.31-.31v-4.93l2.9 5.08c.06.1.16.16.27.16h2.35c.17 0 .31-.14.31-.31v-9.82c0-.17-.14-.31-.31-.31zm-.31 9.82h-1.86l-3.39-5.95c-.07-.12-.22-.18-.35-.15-.14.04-.23.16-.23.3v5.8h-1.74v-9.19h1.87l3.38 5.95c.07.12.21.18.35.15.14-.04.23-.16.23-.3v-5.8h1.74z"/><path d="m55.53 6.2h-5.54v-2.12c0-.81-.33-1.6-.9-2.18-.57-.57-1.37-.9-2.18-.9-1.7 0-3.08 1.38-3.08 3.08v2.12h-8.75v-2.12c0-.81-.33-1.6-.9-2.18-.58-.58-1.36-.9-2.18-.9-1.7 0-3.08 1.38-3.08 3.08v2.12h-8.75v-2.12c0-1.7-1.38-3.08-3.08-3.08-.81 0-1.6.33-2.18.9-.57.57-.9 1.37-.9 2.18v2.12h-5.54c-3.61 0-6.55 2.94-6.55 6.55v43.69c0 3.61 2.94 6.55 6.55 6.55h47.06c3.61 0 6.55-2.94 6.55-6.55v-43.69c0-3.61-2.94-6.55-6.55-6.55zm-11.08-2.12c0-1.35 1.1-2.46 2.46-2.46.64 0 1.28.26 1.73.72.46.46.72 1.09.72 1.74v4.87c0 1.35-1.1 2.46-2.46 2.46s-2.46-1.1-2.46-2.46v-4.87zm-14.91 0c0-1.35 1.1-2.46 2.46-2.46.65 0 1.27.26 1.73.72s.72 1.09.72 1.74v4.87c0 1.35-1.1 2.46-2.46 2.46s-2.46-1.1-2.46-2.46v-4.87zm-14.91 0c0-.64.26-1.28.72-1.74s1.09-.72 1.74-.72c1.35 0 2.46 1.1 2.46 2.46v4.87c0 1.35-1.1 2.46-2.46 2.46s-2.46-1.1-2.46-2.46zm46.82 52.37c0 3.27-2.66 5.93-5.93 5.93h-47.05c-3.27 0-5.93-2.66-5.93-5.93v-29.5h58.92v29.5zm0-30.13h-58.91v-13.57c0-3.27 2.66-5.93 5.93-5.93h5.54v2.12c0 1.7 1.38 3.08 3.08 3.08s3.08-1.38 3.08-3.08v-2.12h8.75v2.12c0 1.7 1.38 3.08 3.08 3.08s3.08-1.38 3.08-3.08v-2.12h8.75v2.12c0 1.7 1.38 3.08 3.08 3.08s3.08-1.38 3.08-3.08v-2.12h5.54c3.27 0 5.93 2.66 5.93 5.93v13.57z"/></svg>