<svg id="Layer_2" viewBox="0 0 64 64" xmlns="http://www.w3.org/2000/svg" data-name="Layer 2"><path d="m46.88 11.39c1.32 0 2.4-1.08 2.4-2.4v-4.86c0-.63-.25-1.25-.7-1.7s-1.07-.7-1.7-.7c-1.32 0-2.4 1.07-2.4 2.4v4.86c0 1.32 1.08 2.4 2.4 2.4z"/><path d="m32 11.39c1.32 0 2.4-1.08 2.4-2.4v-4.86c0-.63-.26-1.25-.7-1.7-.46-.45-1.06-.7-1.7-.7-1.32 0-2.4 1.07-2.4 2.4v4.86c0 1.32 1.08 2.4 2.4 2.4z"/><path d="m17.12 11.39c1.32 0 2.4-1.08 2.4-2.4v-4.86c0-1.33-1.08-2.4-2.4-2.4-.63 0-1.25.25-1.7.7s-.7 1.07-.7 1.7v4.86c0 1.32 1.08 2.4 2.4 2.4z"/><path d="m40.01 50.72c.56 0 1.02-.25 1.41-.77.4-.54.6-1.23.6-2.06s-.2-1.55-.61-2.08c-.39-.5-.9-.75-1.56-.75-.51 0-.94.12-1.27.35-.32.22-.56.48-.72.79v1.24c0 3.28 1.62 3.28 2.15 3.28z"/><path d="m2.64 56.41c0 3.23 2.63 5.86 5.87 5.86h46.98c3.24 0 5.87-2.63 5.87-5.86v-29.41h-58.72zm30.05-11.25c0-2.03.44-3.88 1.31-5.51.88-1.63 2.15-2.92 3.78-3.85 1.62-.92 3.44-1.39 5.41-1.39h.67c.2 0 .36.16.36.36v3.49c0 .2-.16.37-.36.37h-.2c-1.57 0-2.87.37-3.87 1.12-.73.54-1.24 1.21-1.55 2.05.9-.58 1.96-.87 3.16-.87 1.77 0 3.2.66 4.25 1.96 1.03 1.27 1.55 2.95 1.55 5 0 1.28-.3 2.47-.91 3.54-.6 1.07-1.46 1.93-2.55 2.53-1.08.6-2.3.91-3.61.91-1.42 0-2.71-.33-3.83-.98-1.13-.65-2.02-1.59-2.65-2.8-.62-1.2-.94-2.59-.96-4.15zm-15.89-7.2c0-.15.09-.29.24-.34l8.42-2.92s.08-.02.12-.02h.41c.2 0 .37.17.37.37v19.19c0 .2-.17.37-.37.37h-4.45c-.21 0-.37-.17-.37-.37v-13.7l-3.91 1.14c-.11.04-.23.02-.32-.05s-.14-.18-.14-.29z"/><path d="m21.75 39.77c.09.07.15.17.15.29v13.82h3.73v-18.46l-8.11 2.8v2.63l3.91-1.14c.12-.03.23 0 .32.06z"/><path d="m36.66 53.26c1.01.59 2.18.88 3.47.88 1.19 0 2.28-.27 3.26-.81.97-.54 1.73-1.3 2.27-2.26s.82-2.03.82-3.18c0-1.88-.47-3.4-1.4-4.54-.92-1.14-2.12-1.69-3.68-1.69-1.45 0-2.61.45-3.55 1.37-.11.11-.28.14-.42.07-.14-.08-.22-.23-.19-.39.26-1.5.97-2.69 2.11-3.54 1.1-.82 2.49-1.24 4.15-1.27v-2.77h-.31c-1.84 0-3.54.44-5.06 1.3-1.5.86-2.67 2.06-3.49 3.57-.81 1.51-1.23 3.25-1.23 5.16v1.78c.02 1.43.32 2.72.89 3.81.56 1.09 1.36 1.93 2.36 2.51zm.47-7.15c0-.06.01-.11.04-.16.22-.45.56-.84 1-1.14.46-.32 1.02-.48 1.68-.48.88 0 1.6.35 2.13 1.04.51.65.77 1.5.77 2.52s-.25 1.83-.75 2.5c-.53.7-1.19 1.05-1.99 1.05-1.31 0-2.88-.69-2.88-4z"/><path d="m22.59 20.56c0 .52-.11.93-.33 1.24-.25.34-.61.52-1.05.52-.48 0-.84-.15-1.07-.45-.16-.2-.25-.48-.29-.83h-1.64c.06.71.31 1.25.75 1.65.52.48 1.28.72 2.25.72.57 0 1.1-.12 1.56-.37.46-.24.81-.56 1.07-1 .25-.43.38-.93.38-1.48v-6.36h-1.63z"/><path d="m55.49 6.92h-5.48v2.07c0 1.72-1.4 3.12-3.13 3.12s-3.12-1.4-3.12-3.12v-2.07h-8.63v2.07c0 1.72-1.41 3.12-3.13 3.12s-3.13-1.4-3.13-3.12v-2.07h-8.63v2.07c0 1.72-1.4 3.12-3.12 3.12s-3.13-1.4-3.13-3.12v-2.07h-5.48c-3.24 0-5.87 2.63-5.87 5.87v13.49h58.72v-13.49c0-3.24-2.63-5.87-5.87-5.87zm-30.54 13.64c0 .69-.16 1.31-.49 1.85-.32.55-.78.98-1.35 1.28-.57.29-1.21.44-1.9.44-1.16 0-2.08-.3-2.74-.9-.67-.61-1.01-1.47-1.01-2.56 0-.2.17-.36.37-.36h2.37c.2 0 .36.16.36.36 0 .46.09.67.16.76.15.2.72.27.95-.06.13-.18.2-.45.2-.81v-6.72c0-.2.16-.37.36-.37h2.36c.2 0 .36.17.36.37zm10.55-.31c0 .79-.17 1.49-.51 2.07-.35.59-.85 1.05-1.49 1.36-.63.3-1.37.45-2.21.45-1.28 0-2.31-.34-3.07-1.02s-1.15-1.63-1.17-2.81v-6.46c0-.2.17-.37.37-.37h2.37c.2 0 .37.17.37.37v6.51c.02.87.36 1.24 1.13 1.24.38 0 .66-.09.84-.29.18-.19.28-.56.28-1.06v-6.4c0-.2.16-.37.36-.37h2.37c.2 0 .36.17.36.37zm11.04 3.39c0 .2-.17.36-.37.36h-2.35c-.13 0-.25-.07-.31-.18l-2.8-4.91v4.73c0 .2-.16.36-.36.36h-2.36c-.2 0-.36-.16-.36-.36v-9.8c0-.2.16-.37.36-.37h2.36c.13 0 .25.07.32.19l2.78 4.9v-4.72c0-.2.17-.37.37-.37h2.35c.2 0 .37.17.37.37z"/><path d="m33.14 20.24c0 .7-.16 1.22-.48 1.56s-.78.52-1.37.52c-1.17 0-1.83-.7-1.86-1.97v-6.15h-1.65v6.1c0 .97.32 1.72.93 2.27.61.56 1.48.84 2.58.84.73 0 1.37-.13 1.89-.38s.9-.6 1.18-1.07c.27-.48.41-1.05.41-1.71v-6.05h-1.63z"/><path d="m44.18 19.93c0 .17-.11.31-.27.36-.16.04-.33-.03-.41-.18l-3.36-5.91h-1.79v9.07h1.64v-5.73c0-.17.11-.31.27-.35.16-.05.33.03.41.17l3.36 5.91h1.78v-9.07h-1.63z"/></svg>