<svg id="Layer_2" viewBox="0 0 64 64" xmlns="http://www.w3.org/2000/svg" data-name="Layer 2"><path d="m55.89 5.95h-5.28v-2.02c0-.77-.31-1.53-.86-2.07-.55-.55-1.3-.86-2.07-.86-1.62 0-2.93 1.31-2.93 2.93v2.02h-8.33v-2.02c0-.77-.31-1.53-.86-2.07-.55-.55-1.29-.86-2.07-.86-1.62 0-2.93 1.31-2.93 2.93v2.02h-8.33v-2.02c0-1.62-1.31-2.93-2.93-2.93-.77 0-1.53.31-2.07.86-.55.55-.86 1.3-.86 2.07v2.02h-5.28c-3.44 0-6.24 2.8-6.24 6.24v41.6c0 3.44 2.8 6.24 6.24 6.24h44.81c3.44 0 6.24-2.8 6.24-6.24v-41.6c0-3.44-2.8-6.24-6.24-6.24z" fill="#7ac3bc"/><path d="m16.59 42.8 3.79-1.11v13.13c0 .16.13.3.3.3h4.25c.16 0 .3-.13.3-.3v-18.31c0-.16-.13-.3-.3-.3h-.39s-.07 0-.1.02l-8.03 2.78c-.12.04-.2.15-.2.28v3.22c0 .09.04.18.12.24s.17.07.26.05zm.21-3.29 7.79-2.69h.04v17.71h-3.66v-13.23c0-.09-.04-.18-.12-.24-.07-.06-.17-.07-.26-.05l-3.79 1.11z"/><path d="m31.37 42.7h4.25c.16 0 .3-.13.3-.3 0-.75.18-1.39.55-1.88.35-.47.78-.7 1.33-.7s.98.17 1.27.51c.3.35.45.9.45 1.61 0 .89-.71 2.15-2.09 3.73l-5.88 6.19c-.05.06-.08.13-.08.2v2.77c0 .16.13.3.3.3h12.77c.16 0 .3-.13.3-.3v-3.27c0-.16-.13-.3-.3-.3h-6.55l1.92-2.22c1.26-1.26 2.19-2.28 2.76-3.04.58-.77 1.01-1.52 1.29-2.22.28-.71.42-1.46.42-2.21 0-1.79-.57-3.19-1.71-4.16-1.12-.96-2.72-1.44-4.76-1.44-1.28 0-2.45.28-3.49.84s-1.87 1.35-2.45 2.34-.88 2.09-.88 3.26c0 .16.13.3.3.3zm1.1-3.26c.53-.9 1.28-1.61 2.22-2.12.95-.51 2.03-.77 3.2-.77 1.9 0 3.37.44 4.38 1.3s1.5 2.08 1.5 3.71c0 .68-.13 1.35-.38 2-.26.66-.66 1.36-1.21 2.08-.56.74-1.47 1.74-2.72 3l-2.36 2.73c-.08.09-.09.21-.05.32s.15.17.27.17h6.91v2.68h-12.18v-2.35l5.81-6.11c1.51-1.72 2.25-3.07 2.25-4.13 0-.86-.2-1.52-.58-1.99-.4-.48-.98-.72-1.72-.72s-1.35.32-1.81.94c-.39.53-.61 1.18-.65 1.93h-3.66c.05-.95.31-1.85.79-2.66z"/><path d="m23.44 15.87h-2.25c-.16 0-.3.13-.3.3v6.41c0 .35-.07.62-.2.8-.11.16-.27.23-.48.23-.25 0-.42-.06-.51-.17-.07-.1-.16-.3-.16-.75 0-.16-.13-.3-.3-.3h-2.26c-.16 0-.3.13-.3.3 0 1.02.32 1.83.94 2.4.62.56 1.49.85 2.57.85.65 0 1.25-.14 1.79-.42s.97-.68 1.27-1.2c.3-.51.46-1.1.46-1.74v-6.41c0-.16-.13-.3-.3-.3zm-.3 6.71c0 .54-.13 1.02-.37 1.44-.25.42-.59.74-1.04.97s-.96.35-1.52.35c-.94 0-1.67-.23-2.18-.69-.44-.4-.69-.95-.74-1.67h1.67c.03.35.12.62.27.81.21.27.53.4.98.4.41 0 .74-.16.96-.47.21-.28.31-.67.31-1.15v-6.12h1.65v6.12z"/><path d="m33.51 15.87h-2.25c-.16 0-.3.13-.3.3v6.1c0 .5-.09.85-.28 1.05-.18.2-.46.29-.84.29-.76 0-1.11-.38-1.13-1.24v-6.21c0-.16-.13-.3-.3-.3h-2.27c-.16 0-.3.13-.3.3v6.17c.01 1.11.38 2 1.1 2.64.71.64 1.68.96 2.89.96.8 0 1.5-.14 2.09-.43.6-.29 1.08-.72 1.4-1.28.32-.55.48-1.21.48-1.95v-6.12c0-.16-.13-.3-.3-.3zm-.3 6.41c0 .64-.14 1.19-.4 1.65-.27.46-.64.8-1.14 1.04-.51.24-1.12.37-1.83.37-1.06 0-1.89-.27-2.49-.81s-.89-1.26-.9-2.21v-5.86h1.67v5.92c.03 1.18.64 1.82 1.72 1.82.55 0 .98-.16 1.28-.48s.44-.79.44-1.45v-5.81h1.66v5.82z"/><path d="m44.03 15.87h-2.25c-.16 0-.3.13-.3.3v4.69l-2.75-4.84c-.05-.09-.15-.15-.26-.15h-2.25c-.16 0-.3.13-.3.3v9.35c0 .16.13.3.3.3h2.25c.16 0 .3-.13.3-.3v-4.69l2.76 4.84c.05.09.15.15.26.15h2.24c.16 0 .3-.13.3-.3v-9.35c0-.16-.13-.3-.3-.3zm-.3 9.35h-1.77l-3.23-5.66c-.07-.12-.2-.17-.33-.14s-.22.15-.22.29v5.52h-1.66v-8.75h1.78l3.22 5.66c.07.12.2.17.33.14s.22-.15.22-.29v-5.52h1.65v8.75z"/><path d="m52.92 8.92h-5.28v-2.02c0-.77-.31-1.53-.86-2.07-.55-.55-1.3-.86-2.07-.86-1.62 0-2.93 1.31-2.93 2.93v2.02h-8.33v-2.02c0-.77-.31-1.53-.86-2.07-.55-.55-1.29-.86-2.07-.86-1.62 0-2.93 1.31-2.93 2.93v2.02h-8.33v-2.02c0-1.62-1.31-2.93-2.93-2.93-.77 0-1.53.31-2.07.86-.55.55-.86 1.3-.86 2.07v2.02h-5.28c-3.44 0-6.24 2.8-6.24 6.24v41.6c0 3.44 2.8 6.24 6.24 6.24h44.81c3.44 0 6.24-2.8 6.24-6.24v-41.6c0-3.44-2.8-6.24-6.24-6.24zm-10.55-2.02c0-1.29 1.05-2.34 2.34-2.34.61 0 1.22.25 1.65.69.44.44.69 1.04.69 1.65v4.63c0 1.29-1.05 2.34-2.34 2.34s-2.34-1.05-2.34-2.34zm-14.19 0c0-1.29 1.05-2.34 2.34-2.34.62 0 1.21.24 1.65.69.44.44.69 1.04.69 1.65v4.63c0 1.29-1.05 2.34-2.34 2.34s-2.34-1.05-2.34-2.34zm-14.19 0c0-.61.25-1.22.69-1.65.44-.44 1.04-.69 1.65-.69 1.29 0 2.34 1.05 2.34 2.34v4.63c0 1.29-1.05 2.34-2.34 2.34s-2.34-1.05-2.34-2.34zm44.58 49.86c0 3.11-2.53 5.65-5.65 5.65h-44.81c-3.11 0-5.65-2.53-5.65-5.65v-28.09h56.1v28.09zm0-28.68h-56.1v-12.92c0-3.11 2.53-5.65 5.65-5.65h5.28v2.02c0 1.62 1.31 2.93 2.93 2.93s2.93-1.31 2.93-2.93v-2.02h8.33v2.02c0 1.62 1.31 2.93 2.93 2.93s2.93-1.31 2.93-2.93v-2.02h8.33v2.02c0 1.62 1.31 2.93 2.93 2.93s2.93-1.31 2.93-2.93v-2.02h5.28c3.11 0 5.65 2.53 5.65 5.65z"/></svg>