<?xml version="1.0" encoding="UTF-8" standalone="no" ?>
<!DOCTYPE svg PUBLIC "-//W3C//DTD SVG 1.1//EN" "http://www.w3.org/Graphics/SVG/1.1/DTD/svg11.dtd">
<svg xmlns="http://www.w3.org/2000/svg" xmlns:xlink="http://www.w3.org/1999/xlink" version="1.1" width="1280" height="1024" viewBox="0 0 1280 1024" xml:space="preserve">
<desc>Created with Fabric.js 5.3.0</desc>
<defs>
</defs>
<g transform="matrix(1 0 0 1 640 512)" id="background-logo"  >
<rect style="stroke: none; stroke-width: 0; stroke-dasharray: none; stroke-linecap: butt; stroke-dashoffset: 0; stroke-linejoin: miter; stroke-miterlimit: 4; fill: rgb(255,255,255); fill-opacity: 0; fill-rule: nonzero; opacity: 1;"  paint-order="stroke"  x="-640" y="-512" rx="0" ry="0" width="1280" height="1024" />
</g>
<g transform="matrix(4.532277131742652 0 0 4.532277131742652 639.7003479443288 511.9200927851543)" id="logo-logo"  >
<g style=""  paint-order="stroke"   >
		<g transform="matrix(0.1229155831491353 0 0 0.1229155831491353 49.91187081491353 46.60752615052377)"  >
<g style=""  paint-order="stroke"   >
		<g transform="matrix(1 0 0 1 0 0)"  >
<polygon style="stroke: none; stroke-width: 1; stroke-dasharray: none; stroke-linecap: butt; stroke-dashoffset: 0; stroke-linejoin: miter; stroke-miterlimit: 4; fill: rgb(252,244,212); fill-rule: nonzero; opacity: 1;"  paint-order="stroke"  points="-92.275,-100 92.275,100 92.275,-100 -92.275,-100 " />
</g>
</g>
</g>
		<g transform="matrix(0.7125390625 0 0 0.03607526150523768 0 32.708441685086484)"  >
<g style=""  paint-order="stroke"   >
		<g transform="matrix(1 0 0 1 0 0)"  >
<rect style="stroke: none; stroke-width: 0; stroke-dasharray: none; stroke-linecap: butt; stroke-dashoffset: 0; stroke-linejoin: miter; stroke-miterlimit: 4; fill: rgb(252,244,212); fill-rule: nonzero; opacity: 1;"  paint-order="stroke"  x="-100" y="-100" rx="0" ry="0" width="200" height="200" />
</g>
</g>
</g>
		<g transform="matrix(0.7125390625 0 0 0.03607526150523768 0 -55.291558314913516)"  >
<g style=""  paint-order="stroke"   >
		<g transform="matrix(1 0 0 1 0 0)"  >
<rect style="stroke: none; stroke-width: 0; stroke-dasharray: none; stroke-linecap: butt; stroke-dashoffset: 0; stroke-linejoin: miter; stroke-miterlimit: 4; fill: rgb(252,244,212); fill-rule: nonzero; opacity: 1;"  paint-order="stroke"  x="-100" y="-100" rx="0" ry="0" width="200" height="200" />
</g>
</g>
</g>
</g>
</g>
<g transform="matrix(1.9211538461538462 0 0 1.9211538461538462 645.4829696397999 457.9570507103456)" id="text-logo"  >
<g style=""  paint-order="stroke"   >
		<g transform="matrix(1 0 0 1 -5.684342e-14 0)" id="text-logo-path-0"  >
<path style="stroke: none; stroke-width: 0; stroke-dasharray: none; stroke-linecap: butt; stroke-dashoffset: 0; stroke-linejoin: miter; stroke-miterlimit: 4; fill: rgb(252,244,212); fill-rule: nonzero; opacity: 1;"  paint-order="stroke"  transform=" translate(-260.9, 46.9)" d="M 46.63 -93.8 L 9.38 -93.8 L 9.38 0 L 26.13 0 L 26.13 -34.57 L 39.4 -34.57 L 64.32 0 L 82.41 0 L 56.41 -36.18 C 68.34 -40.07 77.05 -51.19 77.05 -64.19 C 77.05 -80.53 63.52 -93.8 46.63 -93.8 Z M 46.63 -49.98 L 26.13 -49.98 L 26.13 -78.39 L 46.63 -78.39 C 54.27 -78.39 60.7 -72.09 60.7 -64.19 C 60.7 -56.41 54.4 -49.98 46.63 -49.98 Z M 157.32 -34.57 L 157.32 0 L 174.07 0 L 174.07 -93.8 L 157.32 -93.8 L 157.32 -49.98 L 115.78 -49.98 L 115.78 -93.8 L 99.03 -93.8 L 99.03 0 L 115.78 0 L 115.78 -34.57 Z M 240.8 1.34 C 267.46 1.34 289.04 -20.23 289.04 -46.9 C 289.04 -73.43 267.46 -95.14 240.8 -95.14 C 214.27 -95.14 192.56 -73.57 192.56 -46.9 C 192.56 -20.23 214.13 1.34 240.8 1.34 Z M 240.8 -15.68 C 223.51 -15.68 209.58 -29.61 209.58 -46.9 C 209.58 -64.05 223.51 -78.12 240.8 -78.12 C 258.08 -78.12 272.02 -64.19 272.02 -46.9 C 272.02 -29.61 258.08 -15.68 240.8 -15.68 Z M 344.78 -93.8 L 307.53 -93.8 L 307.53 0 L 344.78 0 C 371.45 0 393.02 -21.04 393.02 -46.9 C 393.02 -72.76 371.45 -93.8 344.78 -93.8 Z M 324.28 -78.39 L 344.78 -78.39 C 361.93 -78.39 376 -64.32 376 -46.9 C 376 -29.61 362.07 -15.41 344.78 -15.41 L 324.28 -15.41 Z M 428.13 -93.8 L 411.38 -93.8 L 411.38 0 L 428.13 0 Z M 451.04 -93.8 L 451.04 0 L 512.42 0 L 512.42 -15.41 L 467.79 -15.41 L 467.79 -34.57 L 505.72 -34.57 L 505.72 -49.98 L 467.79 -49.98 L 467.79 -78.39 L 512.42 -78.39 L 512.42 -93.8 Z" stroke-linecap="round" />
</g>
</g>
</g>
</svg>