<svg clip-rule="evenodd" fill-rule="evenodd" height="1.707in" image-rendering="optimizeQuality" shape-rendering="geometricPrecision" text-rendering="geometricPrecision" viewBox="0 0 1.70666 1.70666" width="1.707in" xmlns="http://www.w3.org/2000/svg" xmlns:xlink="http://www.w3.org/1999/xlink"><linearGradient id="id0" gradientUnits="userSpaceOnUse" x1="-.01" x2="1.774" y1=".853" y2=".853"><stop offset="0" stop-color="#5979bc"/><stop offset="1" stop-color="#ff9a59"/></linearGradient><g id="Layer_x0020_1"><path d="m.107429 1.70666c-.0287362 0-.0556929-.0111299-.0758976-.0313346-.0418583-.0418543-.0418622-.109957-.00000787-.151811l.255012-.255012c.0202087-.0202087.0471654-.0313386.0759055-.0313386.0219488 0 .0428504.00649606.0605079.018563l.0933701-.0933701c-.254768-.26974-.250157-.696437.0138701-.960469.130193-.130189.30328-.201886.48739-.201886.184106 0 .357201.0716969.487386.201882.268744.268744.268744.706031 0 .974776-.130185.130185-.303276.201882-.487386.201882-.177457 0-.344665-.0666142-.473098-.188004l-.0933661.0933661c.0285197.0417677.0242717.0993622-.0127717.136406l-.255008.255012c-.0202087.0202087-.0471614.0313386-.0759055.0313386zm.448535-.56063c.0009252.00065354.00180709.0013937.00263386.00222047.00085433.00085433.00161417.00176772.00227953.00272835.12237.121079.284413.18772.456701.18772.173469 0 .336551-.0675512.459217-.190213.253209-.253213.253209-.665217 0-.918425-.122665-.122665-.285752-.190217-.459217-.190217-.173469 0-.336551.0675512-.459217.190217-.252394.252402-.253169.662559-.00239764.915969zm.461614.0986457c-.148354 0-.287827-.0577756-.392728-.162681-.104902-.104898-.162677-.244374-.162677-.392724 0-.148354.0577756-.287831.162677-.392732.104902-.104906.244374-.162677.392732-.162677.148354 0 .287831.0577717.392728.162677.104906.104902.162677.244378.162677.392732 0 .14835-.0577717.287827-.162677.392724-.104898.104909-.244378.162681-.392732.162681zm.00000394-1.07097c-.137717 0-.267181.053626-.364559.151004s-.151004.226846-.151004.364555c0 .137713.053626.267181.151004.364559.097378.097374.226846.151004.364555.151004.137717 0 .267185-.0536299.364563-.151004.097378-.097378.151008-.226846.151008-.364555 0-.137713-.053626-.267181-.151008-.364559-.097378-.097374-.22685-.151004-.364559-.151004zm-.655142 1.10331c-.0180984 0-.0350512.00698031-.0477323.0196614l-.255012.255012c-.026315.0263228-.026315.0691457 0 .0954646.012685.0126772.0296339.0196654.0477323.0196654.0180945 0 .0350472-.00698819.0477283-.0196654l.255008-.255012c.0263189-.0263228.0263228-.0691417.00000394-.0954606-.0126811-.012685-.0296299-.0196654-.0477283-.0196654z" fill="url(#id0)"/></g></svg>