<svg clip-rule="evenodd" fill-rule="evenodd" height="512" image-rendering="optimizeQuality" shape-rendering="geometricPrecision" text-rendering="geometricPrecision" viewBox="0 0 1707 1707" width="512" xmlns="http://www.w3.org/2000/svg" xmlns:xlink="http://www.w3.org/1999/xlink"><linearGradient id="id0" gradientUnits="userSpaceOnUse" x1="50.146" x2="1640.03" y1="128.126" y2="1561.87"><stop offset="0" stop-color="#a96f44"/><stop offset="1" stop-color="#f2ecb6"/></linearGradient><g id="Layer_x0020_1"><path d="m576 1168c-158 0-308-62-419-173-231-231-231-607 0-838s607-231 838 0 231 607 0 838c-112 111-262 173-419 173zm0-382c-45 0-82-36-82-82 0-19-5-49 20-49s20 30 20 49c0 56 84 56 84 0v-257c0-55-84-55-84 0v116c0 26-40 26-40 0v-116c0-108 164-108 164 0v257c0 46-37 82-82 82zm0 66c-82 0-148-66-148-148v-257c0-81 66-148 148-148 81 0 148 67 148 148v151c0 27-40 27-40 0v-151c0-59-49-108-108-108-60 0-108 49-108 108v257c0 60 48 108 108 108 58 0 105-45 108-103 1-26 41-24 40 2-4 79-69 141-148 141zm0 66c-118 0-214-96-214-214v-257c0-118 96-214 214-214 93 0 177 63 205 152 7 25-31 37-39 12-22-73-90-124-166-124-96 0-174 78-174 174v257c0 96 78 174 174 174s174-78 174-174v-201c0-26 40-26 40 0v201c0 118-96 214-214 214zm0 67c-154 0-280-126-280-281v-174c0-27 40-27 40 0v174c0 133 108 241 240 241s240-108 240-241v-257c0-132-108-240-240-240-122 0-225 91-239 213-3 26-42 21-39-5 16-141 135-248 278-248 154 0 280 126 280 280v257c0 155-126 281-280 281zm0 66c-191 0-346-156-346-347v-257c0-191 155-346 346-346s346 155 346 346v150c0 26-40 26-40 0v-150c0-169-137-306-306-306s-306 137-306 306v257c0 169 137 307 306 307 167 0 304-136 306-302 1-27 41-26 40 0-2 188-158 342-346 342zm980 655c-40 0-78-15-106-44l-163-162 213-213 162 163c94 93 29 256-106 256zm-6-91c-58 0-87-70-46-111s111-12 111 46c0 36-29 65-65 65zm-291-143-81-81 213-213 81 81zm-109-109-53-53c-59-59-59-155 0-213 59-59 154-59 213 0l53 53zm-120-220-72-72c43-32 81-71 113-113l72 72c-53 18-95 60-113 113zm-821-934c-202 202-202 532 0 734s532 202 734 0 202-532 0-734c-202-203-532-203-734 0z" fill="url(#id0)"/></g></svg>