<svg id="Capa_1" enable-background="new 0 0 512 512" height="512" viewBox="0 0 512 512" width="512" xmlns="http://www.w3.org/2000/svg"><g><path d="m121.334 376.754v-220c0-52.383 42.617-95 95-95h143.611c-4.683-31.273-31.722-55.334-64.278-55.334h-230.667c-35.841 0-65 29.159-65 65v220.001c0 35.841 29.159 65 65 65h20.334v63.826l38.59-21.439c-1.69-7.081-2.59-14.464-2.59-22.054z"/><path d="m447 91.754h-230.666c-35.841 0-65 29.159-65 65v220c0 35.841 29.159 65 65 65h95.446l114.887 63.826v-63.826h20.333c35.841 0 65-29.159 65-65v-220c0-35.842-29.159-65-65-65zm-210.542 93.5h190.209v30h-190.209zm121.175 162h-121.175v-30h121.175zm69.243-65.919h-190.418v-30h190.418z"/></g></svg>